<svg width="36" height="33" viewBox="0 0 36 33" fill="none" xmlns="http://www.w3.org/2000/svg">
<path d="M17.9886 19.2494C19.7599 19.2494 21.1959 17.8128 21.1959 16.0407C21.1959 14.2686 19.7599 12.832 17.9886 12.832C16.2172 12.832 14.7812 14.2686 14.7812 16.0407C14.7812 17.8128 16.2172 19.2494 17.9886 19.2494Z" fill="#89BCD9"/>
<path d="M35.9844 16.0412C35.9844 13.5212 33.0274 11.3299 28.4276 10.0151C29.5854 5.36642 29.1786 1.70381 26.9883 0.451634C24.7979 -0.816192 21.4342 0.670764 17.9922 3.98903C14.5502 0.655112 11.1864 -0.816192 8.99609 0.451634C7.18123 1.50033 6.50847 4.1612 7.11864 7.94903C7.22816 8.62207 7.38462 9.31076 7.55671 10.0308C2.95697 11.3455 0 13.5369 0 16.0569C0 18.5769 2.95697 20.7525 7.55671 22.0829C7.38462 22.7873 7.22816 23.4916 7.11864 24.1647C6.50847 27.9525 7.18123 30.6134 8.99609 31.6621C9.52803 31.9751 10.1382 32.1316 10.811 32.1316C12.4068 32.1316 14.3312 31.2551 16.4276 29.549C16.9439 29.1264 17.4759 28.6412 17.9922 28.1403C18.5085 28.6412 19.0404 29.1264 19.5567 29.549C21.6532 31.2551 23.5776 32.1316 25.1734 32.1316C25.8462 32.1316 26.4563 31.9751 26.9883 31.6621C28.8031 30.6134 29.4759 27.9525 28.8814 24.1647C28.7718 23.4916 28.6154 22.8029 28.4433 22.0829C33.043 20.7682 36 18.5769 36 16.0569L35.9844 16.0412ZM26.206 1.79772C27.6141 2.61163 27.927 5.58555 26.91 9.62381C25.4394 9.27946 23.8279 9.02903 22.1226 8.8725C21.1369 7.47946 20.1043 6.21163 19.0874 5.10033C21.4655 2.79946 23.6714 1.54729 25.189 1.54729C25.5802 1.54729 25.9244 1.62555 26.2216 1.79772H26.206ZM23.0143 18.9369C22.4511 19.8916 21.8722 20.8308 21.2777 21.7073C20.2295 21.7855 19.1343 21.8325 18.0078 21.8325C16.8814 21.8325 15.7862 21.7855 14.7379 21.7073C14.1434 20.8308 13.5489 19.8916 13.0013 18.9369C12.4381 17.9664 11.9374 17.0116 11.4681 16.0412C11.9374 15.0708 12.4381 14.116 13.0013 13.1455C13.5645 12.1595 14.1591 11.236 14.7379 10.3751C15.7862 10.2969 16.8814 10.2499 18.0078 10.2499C19.1343 10.2499 20.2295 10.2969 21.2777 10.3751C21.8722 11.236 22.4511 12.1595 23.0143 13.1455C23.5619 14.1003 24.0782 15.0708 24.5476 16.0412C24.0939 16.996 23.5932 17.9508 23.0143 18.9369ZM25.3611 17.8725C25.7992 18.9212 26.1747 19.9386 26.4876 20.9403C25.4863 21.1595 24.4068 21.3629 23.2647 21.5038C23.6402 20.9247 24 20.3299 24.3598 19.7195C24.7197 19.109 25.0482 18.4829 25.3611 17.8725ZM17.9922 25.8551C17.2881 25.0882 16.5841 24.2429 15.8957 23.3351C16.5841 23.3664 17.2725 23.3821 17.9922 23.3821C18.7119 23.3821 19.4003 23.3664 20.0887 23.3351C19.4003 24.2429 18.6962 25.0725 17.9922 25.8551ZM12.7197 21.5038C11.5776 21.3629 10.498 21.1751 9.49674 20.9403C9.80965 19.9386 10.1851 18.9212 10.6232 17.8725C10.9361 18.4829 11.2647 19.109 11.6245 19.7195C11.9844 20.3299 12.3442 20.9247 12.7197 21.5038ZM10.6232 14.1942C10.1851 13.1455 9.80965 12.1282 9.49674 11.1264C10.498 10.9073 11.5776 10.7038 12.7197 10.5629C12.3442 11.1421 11.9844 11.7369 11.6245 12.3473C11.2647 12.9577 10.9361 13.5682 10.6232 14.1942ZM17.9922 6.21163C18.6806 6.96294 19.3846 7.80816 20.0887 8.73163C19.4003 8.70033 18.7119 8.68468 17.9922 8.68468C17.2725 8.68468 16.5841 8.70033 15.8957 8.73163C16.5997 7.80816 17.2881 6.96294 17.9922 6.21163ZM24.3598 12.3629C24 11.7525 23.6402 11.1577 23.2647 10.5786C24.4068 10.7195 25.4863 10.9073 26.4876 11.1421C26.1904 12.1282 25.8149 13.1455 25.3611 14.2099C25.0482 13.5995 24.704 12.9734 24.3598 12.3629ZM8.65189 7.69859C8.16688 4.64642 8.57366 2.50207 9.77836 1.81337C10.0756 1.6412 10.4198 1.56294 10.811 1.56294C12.3286 1.56294 14.5346 2.81511 16.9126 5.11598C15.8801 6.22729 14.8631 7.49511 13.8774 8.88816C12.1721 9.04468 10.5606 9.29511 9.08996 9.63946C8.91786 8.98207 8.77705 8.32468 8.68318 7.71424L8.65189 7.69859ZM1.56454 16.0412C1.56454 14.4134 3.97392 12.6603 7.97914 11.5177C8.43286 12.9734 9.02738 14.4916 9.73142 16.0412C9.02738 17.5751 8.43286 19.0934 7.97914 20.5647C3.98957 19.4221 1.56454 17.6847 1.56454 16.0412ZM15.442 28.2969C13.0482 30.2377 10.9831 30.9577 9.77836 30.269C8.57366 29.5803 8.16688 27.4203 8.65189 24.3838C8.74576 23.7577 8.90222 23.116 9.05867 22.4586C10.5293 22.8029 12.1408 23.0534 13.8462 23.2099C14.8318 24.5873 15.8488 25.8708 16.8814 26.9977C16.3963 27.4673 15.9113 27.9212 15.4263 28.3125L15.442 28.2969ZM27.3325 24.3838C27.8175 27.436 27.4107 29.5803 26.206 30.269C25.0013 30.9577 22.9361 30.2377 20.5424 28.2969C20.0574 27.9056 19.5724 27.4516 19.0874 26.9821C20.1356 25.8551 21.1525 24.5873 22.1226 23.2099C23.8279 23.0534 25.4394 22.8029 26.91 22.4586C27.0821 23.116 27.2229 23.7734 27.3168 24.3838H27.3325ZM28.0052 20.549C27.5515 19.0934 26.957 17.5751 26.2529 16.0255C26.9726 14.4603 27.5515 12.9421 28.0052 11.5021C32.0104 12.6447 34.4198 14.3821 34.4198 16.0255C34.4198 17.669 32.0104 19.4064 28.0052 20.549Z" fill="#89BCD9"/>
</svg>
